grf
version=1
nRows=12
nColumns=37
inDegrees=no
endheader
time	ground_force_1_vx	ground_force_1_vy	ground_force_1_vz	ground_force_1_px	ground_force_1_py	ground_force_1_pz	ground_moment_1_mx	ground_moment_1_my	ground_moment_1_mz	ground_force_2_vx	ground_force_2_vy	ground_force_2_vz	ground_force_2_px	ground_force_2_py	ground_force_2_pz	ground_moment_2_mx	ground_moment_2_my	ground_moment_2_mz	ground_force_3_vx	ground_force_3_vy	ground_force_3_vz	ground_force_3_px	ground_force_3_py	ground_force_3_pz	ground_moment_3_mx	ground_moment_3_my	ground_moment_3_mz	ground_force_4_vx	ground_force_4_vy	ground_force_4_vz	ground_force_4_px	ground_force_4_py	ground_force_4_pz	ground_moment_4_mx	ground_moment_4_my	ground_moment_4_mz
      5.36000000	      0.00000000	     -0.00000000	      0.00000000	      0.00000000	      0.00000000	      0.00000000	      0.00000000	      0.00000000	      0.00000000	      0.65285200	     33.78042603	   -347.59359741	   -374.78638768	  -1104.73685584	      0.00000000	      0.00000000	      0.00000000	   1738.77106326	     -4.43554120	    -22.40553817	   -225.56701660	   -377.63671000	   -737.18148300	      0.00000000	      0.00000000	     -0.00000000	  -1661.09407293	      0.00000000	     -0.00000000	      0.00000000	      0.00000000	      0.00000000	      0.00000000	      0.00000000	      0.00000000	      0.00000000
      5.37000000	      0.00000000	     -0.00000000	      0.00000000	      0.00000000	      0.00000000	      0.00000000	      0.00000000	      0.00000000	      0.00000000	      0.59617281	     31.40648079	   -322.95260620	   -373.82107630	  -1105.38636823	      0.00000000	      0.00000000	      0.00000000	   1594.46437242	     -3.66942150	    -22.55416457	   -212.20509338	   -375.04218289	   -735.88623046	      0.00000000	      0.00000000	     -0.00000000	  -1352.95883980	      0.00000000	     -0.00000000	      0.00000000	      0.00000000	      0.00000000	      0.00000000	      0.00000000	      0.00000000	      0.00000000
      5.38000000	      0.00000000	     -0.00000000	      0.00000000	      0.00000000	      0.00000000	      0.00000000	      0.00000000	      0.00000000	      0.00000000	     -0.25862890	     30.33704567	   -299.38479614	   -375.16475079	  -1103.61078296	      0.00000000	      0.00000000	      0.00000000	   1673.22214867	     -4.25386717	    -22.02436219	   -199.17742920	   -374.71207031	   -735.41148599	      0.00000000	      0.00000000	     -0.00000000	  -1378.41592310	      0.00000000	     -0.00000000	      0.00000000	      0.00000000	      0.00000000	      0.00000000	      0.00000000	      0.00000000	      0.00000000
      5.39000000	      0.00000000	     -0.00000000	      0.00000000	      0.00000000	      0.00000000	      0.00000000	      0.00000000	      0.00000000	      0.00000000	     -2.18790078	     29.67569351	   -284.12438965	   -373.40713635	  -1105.21059167	      0.00000000	      0.00000000	      0.00000000	   1543.69919324	     -6.04695744	    -21.25757355	   -188.81582642	   -374.56533862	   -735.04464481	      0.00000000	      0.00000000	     -0.00000000	  -1227.78251114	      0.00000000	     -0.00000000	      0.00000000	      0.00000000	      0.00000000	      0.00000000	      0.00000000	      0.00000000	      0.00000000
      5.40000000	      0.00000000	     -0.00000000	      0.00000000	      0.00000000	      0.00000000	      0.00000000	      0.00000000	      0.00000000	      0.00000000	     -2.79362011	     30.06501389	   -271.83734131	   -374.10996360	  -1106.20974237	      0.00000000	      0.00000000	      0.00000000	   1526.59889436	     -7.12955273	    -20.49528632	   -181.11784363	   -374.83155405	   -734.85051224	      0.00000000	     -0.00000000	     -0.00000000	  -1269.53134975	      0.00000000	     -0.00000000	      0.00000000	      0.00000000	      0.00000000	      0.00000000	      0.00000000	      0.00000000	      0.00000000
      5.41000000	      0.00000000	     -0.00000000	      0.00000000	      0.00000000	      0.00000000	      0.00000000	      0.00000000	      0.00000000	      0.00000000	     -1.28719604	     30.36545753	   -264.26937866	   -376.85002885	  -1104.57878253	      0.00000000	      0.00000000	      0.00000000	   1193.39661890	     -6.94253949	    -19.55658852	   -175.14498901	   -378.10203582	   -739.00869428	      0.00000000	     -0.00000000	     -0.00000000	  -1231.05715369	      0.00000000	     -0.00000000	      0.00000000	      0.00000000	      0.00000000	      0.00000000	      0.00000000	      0.00000000	      0.00000000
      5.42000000	      0.00000000	     -0.00000000	      0.00000000	      0.00000000	      0.00000000	      0.00000000	      0.00000000	      0.00000000	      0.00000000	      1.59510863	     30.35486412	   -261.81701660	   -381.48709836	  -1104.36621464	      0.00000000	      0.00000000	      0.00000000	   1217.02243830	     -4.79547091	    -18.59799343	   -175.23406982	   -380.91270523	   -739.50930229	      0.00000000	      0.00000000	      0.00000000	  -1394.24968819	      0.00000000	     -0.00000000	      0.00000000	      0.00000000	      0.00000000	      0.00000000	      0.00000000	      0.00000000	      0.00000000
      5.43000000	      0.00000000	     -0.00000000	      0.00000000	      0.00000000	      0.00000000	      0.00000000	      0.00000000	      0.00000000	      0.00000000	      4.06472349	     31.20116997	   -265.45901489	   -384.84397362	  -1104.65537173	      0.00000000	      0.00000000	      0.00000000	   1275.07381454	     -1.65769604	    -18.10068879	   -181.53805542	   -386.09098882	   -737.78564025	      0.00000000	      0.00000000	     -0.00000000	  -1476.18486847	      0.00000000	     -0.00000000	      0.00000000	      0.00000000	      0.00000000	      0.00000000	      0.00000000	      0.00000000	      0.00000000
      5.44000000	      0.00000000	     -0.00000000	      0.00000000	      0.00000000	      0.00000000	      0.00000000	      0.00000000	      0.00000000	      0.00000000	      5.64236307	     31.74678421	   -272.74243164	   -390.13620874	  -1104.43435322	      0.00000000	      0.00000000	      0.00000000	   1345.71788326	      1.64134293	    -18.48685660	   -191.44429016	   -394.15251746	   -739.22767380	      0.00000000	     -0.00000000	     -0.00000000	  -1580.99216635	      0.00000000	     -0.00000000	      0.00000000	      0.00000000	      0.00000000	      0.00000000	      0.00000000	      0.00000000	      0.00000000
      5.45000000	      0.00000000	     -0.00000000	      0.00000000	      0.00000000	      0.00000000	      0.00000000	      0.00000000	      0.00000000	      0.00000000	      7.48176289	     31.31249619	   -282.52038574	   -395.81220243	  -1103.05616644	      0.00000000	      0.00000000	      0.00000000	   1508.80461297	      5.10044547	    -19.48018882	   -207.43762207	   -401.26905083	   -738.66809485	      0.00000000	      0.00000000	     -0.00000000	  -1423.80364861	      0.00000000	     -0.00000000	      0.00000000	      0.00000000	      0.00000000	      0.00000000	      0.00000000	      0.00000000	      0.00000000
      5.46000000	      0.00000000	     -0.00000000	      0.00000000	      0.00000000	      0.00000000	      0.00000000	      0.00000000	      0.00000000	      0.00000000	     10.21306419	     31.21715355	   -294.63732910	   -403.86795538	  -1101.44794294	      0.00000000	      0.00000000	      0.00000000	   1566.84791461	      8.88689241	    -20.72224313	   -222.03721619	   -410.31813766	   -739.42706540	      0.00000000	      0.00000000	     -0.00000000	  -1321.78049569	      0.00000000	     -0.00000000	      0.00000000	      0.00000000	      0.00000000	      0.00000000	      0.00000000	      0.00000000	      0.00000000
      5.47000000	      0.00000000	     -0.00000000	      0.00000000	      0.00000000	      0.00000000	      0.00000000	      0.00000000	      0.00000000	      0.00000000	     14.91299152	     29.98177910	   -308.30081177	   -408.98157933	  -1101.78063918	      0.00000000	      0.00000000	      0.00000000	   1990.42966918	     13.42285445	    -21.46217082	   -238.55477905	   -415.78613624	   -741.08866153	      0.00000000	      0.00000000	     -0.00000000	  -1527.36266942	      0.00000000	     -0.00000000	      0.00000000	      0.00000000	      0.00000000	      0.00000000	      0.00000000	      0.00000000	      0.00000000
